<svg id="Layer_1" enable-background="new 0 0 510 510" height="512" viewBox="0 0 510 510" width="512" xmlns="http://www.w3.org/2000/svg"><g><g><path d="m510 255c0-140.833-114.167-255-255-255-98.131 0-158.58 55.352-158.747 55.445 0 0-2.513 3.137-2.983 5.222-3.818 16.948-7.385 39.663-7.385 56.238 0 140.833 118.763 254.972 259.596 254.972 54.231 0 114.568-25.992 154.949-57.243.903-.699 3.769-5.396 3.769-5.396.07-.427.981-4.148 2.062-10.375l-3.654-12.952 6.72-12.332c.412-5.718.673-11.954.673-18.579z" fill="#dff6fd"/><path d="m345.459 364.679c-140.833 0-255-114.167-255-255 0-18.615 2.007-36.753 5.795-54.234-58.645 46.72-96.254 118.747-96.254 199.555 0 2.806.045 5.601.135 8.385l4.364 11.24-2.195 14.8c4.941 36.613 17.652 70.762 36.42 100.73l430.422 3.354c16.381-25.278 28.432-53.701 35.054-84.27-43.56 34.695-98.725 55.44-158.741 55.44z" fill="#d8ecfe"/></g><g><path d="m351.552 331.367-96.412-21.335-96.031 21.314c-23.856 5.295-40.832 26.452-40.832 50.889v53.62l105.815 72.29c10.132 1.225 20.446 1.855 30.908 1.855 10.879 0 21.612-.685 32.154-2.016l105.263-79.426v-46.295c0-24.449-16.993-45.613-40.865-50.896z" fill="#0681af"/><path d="m202.808 409.942v-88.294l-43.699 9.699c-23.856 5.295-40.832 26.452-40.832 50.889v27.706z" fill="#017297"/><path d="m255.14 294.576c-33.301 0-60.296 26.996-60.296 60.296 0 22.165 11.968 41.524 29.786 52.002l30.862-30.862 30.605 30.605c17.573-10.536 29.339-29.764 29.339-51.745 0-33.3-26.995-60.296-60.296-60.296z" fill="#017297"/><path d="m255.14 282.425c-33.301 0-60.296 26.996-60.296 60.296 0 22.165 11.968 41.524 29.786 52.001l30.862-30.862 30.605 30.605c17.573-10.536 29.339-29.764 29.339-51.745 0-33.299-26.995-60.295-60.296-60.295z" fill="#fff"/><g><g><g><path d="m255.531 362.659c-15.377 0-27.842-12.465-27.842-27.842v-62.361h55.683v62.361c.001 15.377-12.464 27.842-27.841 27.842z" fill="#ff965a"/></g></g><path d="m227.689 272.456h55.683v41.64c-14.697 16.042-34.472 20.057-55.683 15.619z" fill="#ff7e46"/><g><g><path d="m331.06 174.771c0-25.408-16.3-48.642-41.708-48.642h-67.641c-7.25 0-13.89 1.897-19.683 5.192v134.296c0 29.312 23.576 53.3 52.887 53.522.205.002.411.002.617.002 43.655 0 79.044-35.389 79.044-79.044v-24.954z" fill="#febe82"/></g></g><g><g><path d="m334.575 229.513v-46.983c10.235 0 18.533 8.298 18.533 18.533v9.917c0 10.236-8.297 18.533-18.533 18.533z" fill="#ff965a"/></g></g><g><g><path d="m334.575 213.949v-15.855c3.454 0 6.254 2.8 6.254 6.254v3.347c0 3.454-2.8 6.254-6.254 6.254z" fill="#ff7e46"/></g></g><g><g><path d="m157.172 210.98c0 10.235 8.298 18.533 18.533 18.533v-46.983c-10.235 0-18.533 8.298-18.533 18.533z" fill="#ff965a"/></g></g><g><g><path d="m169.616 207.651c0 3.363 2.726 6.089 6.089 6.089v-15.436c-3.363 0-6.089 2.726-6.089 6.089z" fill="#ff7e46"/></g></g><g><g><path d="m221.379 210.559v5.574c0 3.636 2.948 6.583 6.583 6.583 3.636 0 6.583-2.948 6.583-6.583v-5.574z" fill="#ff965a"/></g></g><g><g><path d="m275.021 210.559v5.574c0 3.636 2.948 6.583 6.583 6.583 3.636 0 6.583-2.948 6.583-6.583v-5.574z" fill="#ff965a"/></g></g><g><path d="m259.816 319.025c-33.232-9.651-57.524-40.319-57.524-76.664.197-4.491 0-48.011 0-64.543 0-25.408 20.597-46.006 46.006-46.006h57.416c-5.051-1.961-10.557-3.047-16.361-3.047h-67.641c-25.408 0-44.264 18.856-44.264 44.264l-1.742 42.113v24.172c-.001 45.623 38.225 82.142 84.11 79.711z" fill="#ff965a"/></g><g><g><path d="m227.962 217.443c-3.636 0-6.583-2.948-6.583-6.583v-8.468l2.427-3.675-2.427-3.675v-2.187c0-3.636 2.948-6.583 6.583-6.583s6.583 2.948 6.583 6.583v18.005c.001 3.636-2.947 6.583-6.583 6.583z" fill="#373c41"/></g></g><g><g><path d="m281.604 217.443c-3.636 0-6.583-2.948-6.583-6.583v-8.468l2.427-3.675-2.427-3.675v-2.187c0-3.636 2.948-6.583 6.583-6.583 3.636 0 6.583 2.948 6.583 6.583v18.005c0 3.636-2.947 6.583-6.583 6.583z" fill="#373c41"/></g></g><g><g><g><path d="m236.636 182.98h-19.199c-3.636 0-6.583-2.947-6.583-6.583 0-3.636 2.947-6.583 6.583-6.583h19.199c3.636 0 6.583 2.947 6.583 6.583 0 3.635-2.947 6.583-6.583 6.583z" fill="#783c28"/></g></g></g><g><g><g><path d="m291.498 182.98h-19.199c-3.636 0-6.583-2.947-6.583-6.583 0-3.636 2.948-6.583 6.583-6.583h19.199c3.636 0 6.583 2.947 6.583 6.583 0 3.635-2.947 6.583-6.583 6.583z" fill="#783c28"/></g></g></g><path d="m279.772 253.864h-6.779l-17.853 3.706-17.853-3.706h-5.997c-2.012 0-3.619 1.756-3.351 3.75.513 3.814 1.799 7.383 3.695 10.545l36.149 10.713c8.164-4.008 14.078-11.895 15.339-21.258.269-1.994-1.338-3.75-3.35-3.75z" fill="#de0c1e"/><g><g><path d="m244.864 226.789c-1.637 6.535 1.338 13.654 7.026 15.8 1.145.432 2.369.666 3.641.666 1.273 0 2.497-.234 3.642-.666 5.688-2.146 8.662-9.265 7.026-15.8l-5.426-21.665c-1.366-5.454-9.117-5.454-10.483 0z" fill="#ff965a"/></g></g><g fill="#fff"><path d="m223.806 204.818c-1.34 0-2.427-1.087-2.427-2.427v-7.35c0-1.34 1.087-2.427 2.427-2.427 1.34 0 2.427 1.087 2.427 2.427v7.35c0 1.341-1.087 2.427-2.427 2.427z"/><path d="m277.447 204.818c-1.34 0-2.427-1.087-2.427-2.427v-7.35c0-1.34 1.087-2.427 2.427-2.427 1.34 0 2.427 1.087 2.427 2.427v7.35c0 1.341-1.086 2.427-2.427 2.427z"/></g></g><path d="m231.638 268.158c4.865 8.115 13.744 13.549 23.894 13.549 4.397 0 8.554-1.023 12.251-2.838-1.589-9.97-10.225-17.591-20.642-17.591-6.15-.001-11.678 2.654-15.503 6.88z" fill="#ff3939"/><path d="m269.066 261.277h-27.851c-2.169 0-3.927-1.758-3.927-3.927v-3.486h35.706v3.486c-.001 2.169-1.759 3.927-3.928 3.927z" fill="#fff"/><g><g><path d="m334.577 129.706v44.272.002 39.952c-5.847 0-10.587-4.74-10.587-10.587v-46.75c0-10.326-5.811-19.844-15.097-24.36-.228-.111-.455-.219-.682-.324v-2.205z" fill="#6d3222"/></g><g><path d="m175.705 140.547v33.432.002 39.952c5.847 0 10.588-4.74 10.588-10.587v-46.75c0-.062 0-.124.001-.186.051-7.508 5.141-13.787 12.007-15.863z" fill="#6d3222"/></g><path d="m212.384 83.979h-12.326c-13.449 0-24.352 10.903-24.352 24.352v65.647c20.257 0 36.679-16.422 36.679-36.679v-53.32z" fill="#6d3222"/><ellipse cx="191.985" cy="87.761" fill="#6d3222" rx="7.065" ry="17.023" transform="matrix(.55 -.835 .835 .55 13.083 199.807)"/><g fill="#783c28"><ellipse cx="203.478" cy="81.986" rx="7.065" ry="17.023" transform="matrix(.998 -.061 .061 .998 -4.651 12.651)"/><path d="m349.347 158.196h-85.623c-36.133 0-65.424-29.291-65.424-65.424 0-12.702 10.297-23 23-23h62.623c36.133 0 65.424 29.291 65.424 65.424z"/></g></g></g><g><g><g><path d="m167.254 301.1-2.397-19.072 2.397-25.904c9.798 0 19.208 7.943 19.208 17.741v9.493c0 9.799-9.409 17.742-19.208 17.742z" fill="#924d34"/></g></g><g><g><path d="m168.025 287.687-.967-7.697.967-10.454c3.954 0 7.752 3.206 7.752 7.16v3.831c0 3.955-3.798 7.16-7.752 7.16z" fill="#783c28"/></g></g><path d="m2.304 289.425c3.628 4.644 9.544 7.688 15.61 7.688l2.397-19.072-2.397-25.904c-7.506 0-14.784 4.662-17.779 11.248.285 8.8 1.015 17.487 2.169 26.04z" fill="#924d34"/><g><g><path d="m17.144 283.701.967-7.697-.967-10.454c-3.954 0-7.752 3.206-7.752 7.16v3.831c0 3.954 3.798 7.16 7.752 7.16z" fill="#783c28"/></g></g><path d="m184.973 398.603-92.294-20.423-23.887 16.544-6.938 26.775c40.424 46.852 97.607 78.838 162.238 86.647v-60.821c0-23.406-16.267-43.666-39.119-48.722z" fill="#0ed2b3"/><path d="m38.724 390.155c6.916 11.044 14.655 21.521 23.13 31.344 6.873-11.369 18.202-19.875 31.902-22.915l20.048-4.45v-11.279l-21.125-4.675z" fill="#2abcc8"/><g><g><path d="m93.054 428.558c-14.72 0-26.652-11.933-26.652-26.652l5.033-52.361 48.272-7.336v59.697c-.001 14.719-11.933 26.652-26.653 26.652z" fill="#924d34"/></g></g><path d="m66.402 342.208v59.697c29.636 5.756 47.632-4.109 53.305-18.947v-40.75z" fill="#783c28"/><g><g><path d="m165.356 248.696c0-24.323-15.603-46.564-39.926-46.564h-64.752c-6.94 0-13.297 1.816-18.842 4.97v128.559c0 28.06 22.569 51.023 50.627 51.235.197.001.394.002.591.002 41.79 0 75.667-33.877 75.667-75.667v-23.888z" fill="#bb5a38"/></g></g><g><g><path d="m60.36 282.955v5.336c0 3.48 2.822 6.302 6.302 6.302s6.302-2.822 6.302-6.302v-5.336z" fill="#924d34"/></g></g><g><g><path d="m111.71 282.955v5.336c0 3.48 2.822 6.302 6.302 6.302s6.302-2.822 6.302-6.302v-5.336z" fill="#924d34"/></g></g><g><g><path d="m66.663 289.546c-3.48 0-6.302-2.822-6.302-6.302v-8.107l2.323-3.518-2.323-3.518v-2.094c0-3.48 2.822-6.302 6.302-6.302s6.302 2.822 6.302 6.302v17.236c0 3.481-2.822 6.303-6.302 6.303z" fill="#373c41"/></g></g><g><g><path d="m118.013 289.546c-3.48 0-6.302-2.822-6.302-6.302v-8.107l2.323-3.518-2.323-3.518v-2.094c0-3.48 2.822-6.302 6.302-6.302s6.302 2.822 6.302 6.302v17.236c0 3.481-2.822 6.303-6.302 6.303z" fill="#373c41"/></g></g><path d="m156.427 222.372c.723.001 1.437-.035 2.147-.087-6.794-11.919-18.352-20.153-33.145-20.153h-64.751c-6.94 0-13.297 1.816-18.842 4.97v1.611c-14.236 6.642-23.531 20.864-23.531 38.317l-1.667 40.314v23.139c0 43.674 36.593 78.632 80.517 76.306-31.812-9.239-55.066-38.596-55.066-73.389.189-4.299 0-45.961 0-61.786 0-.113 0-.225.001-.338.121-16.095 13.382-29.002 29.477-28.986z" fill="#924d34"/><g><g><g><path d="m74.966 256.554h-18.379c-3.481 0-6.302-2.822-6.302-6.302 0-3.481 2.822-6.302 6.302-6.302h18.379c3.481 0 6.302 2.822 6.302 6.302 0 3.48-2.822 6.302-6.302 6.302z" fill="#783c28"/></g></g></g><g><g><g><path d="m127.484 256.554h-18.379c-3.481 0-6.302-2.822-6.302-6.302 0-3.481 2.822-6.302 6.302-6.302h18.379c3.481 0 6.302 2.822 6.302 6.302 0 3.48-2.822 6.302-6.302 6.302z" fill="#783c28"/></g></g></g><path d="m116.259 324.411h-6.489l-17.09 3.548-17.09-3.548h-5.74c-1.926 0-3.464 1.681-3.208 3.589.492 3.651 1.722 7.068 3.537 10.095l34.605 10.255c7.815-3.836 13.477-11.387 14.684-20.35.255-1.908-1.283-3.589-3.209-3.589z" fill="#fff"/><path d="m151.512 240.588c7.284 0 12.152-7.515 9.168-14.16-6.34-14.116-18.797-24.295-35.251-24.295h-64.751c-5.771 0-11.137 1.26-15.97 3.496 10.217 20.708 31.534 34.959 56.188 34.959z" fill="#924d34"/><g><g><path d="m82.842 298.492c-1.567 6.256 1.281 13.071 6.725 15.125 1.096.413 2.268.637 3.486.637s2.39-.224 3.486-.637c5.445-2.054 8.292-8.869 6.725-15.125l-5.194-20.74c-1.308-5.221-8.728-5.221-10.035 0z" fill="#924d34"/></g></g><g><path d="m168.721 206.715v42.381.002 38.245c-5.597 0-10.135-4.538-10.135-10.135v-44.752c0-9.885-5.563-18.996-14.452-23.319-.218-.106-.436-.209-.653-.31v-2.111h25.24z" fill="#272a2d"/></g><g fill="#fff"><path d="m62.684 277.46c-1.283 0-2.323-1.04-2.323-2.323v-7.036c0-1.283 1.04-2.323 2.323-2.323 1.283 0 2.323 1.04 2.323 2.323v7.036c0 1.283-1.04 2.323-2.323 2.323z"/><path d="m114.034 277.46c-1.283 0-2.323-1.04-2.323-2.323v-7.036c0-1.283 1.04-2.323 2.323-2.323 1.283 0 2.323 1.04 2.323 2.323v7.036c0 1.283-1.04 2.323-2.323 2.323z"/><path d="m70.181 338.093c4.657 7.768 13.156 12.97 22.873 12.97 4.209 0 8.188-.979 11.728-2.717-1.521-9.544-9.788-16.839-19.761-16.839-5.886 0-11.178 2.542-14.84 6.586z"/><path d="m106.01 331.507h-26.661c-2.076 0-3.76-1.683-3.76-3.76v-3.337h34.181v3.337c0 2.077-1.683 3.76-3.76 3.76z"/></g><g><path d="m16.638 217.093v32.003.002 38.245c5.598 0 10.135-4.538 10.135-10.135v-44.752c0-.059 0-.119.001-.178.049-7.187 4.921-13.198 11.494-15.185z" fill="#272a2d"/></g><path d="m51.749 162.942h-11.8c-12.875 0-23.312 10.437-23.312 23.312v62.842c19.392 0 35.111-15.72 35.111-35.111v-51.043z" fill="#272a2d"/><path d="m136.327 235.906h-34.208c-38.89 0-70.417-31.527-70.417-70.417 0-9.27 7.515-16.784 16.784-16.784h87.841c24.08 0 43.601 19.521 43.601 43.601-.001 24.079-19.521 43.6-43.601 43.6z" fill="#373c41"/></g><g><path d="m417.056 381.982-65.754 14.594v94.563c48.412-19.77 89.577-54.013 117.842-97.631z" fill="#fd4755"/><path d="m392.006 387.542-66.096 14.67c-22.643 5.026-38.756 25.107-38.756 48.301v57.471c22.756-2.873 44.627-8.756 65.178-17.253v-40.218c0-23.194 16.112-43.275 38.755-48.301l.919-.204z" fill="#fe0364"/><g><g><g><path d="m417.428 431.932c-14.595 0-26.426-11.831-26.426-26.426v-59.189h52.851v59.189c0 14.595-11.831 26.426-26.425 26.426z" fill="#f9968c"/></g></g><path d="m391.002 346.317h52.851v39.522c-13.949 15.226-32.719 19.037-52.851 14.824z" fill="#f5817a"/><g><g><path d="m489.115 253.6c0-24.116-15.471-46.168-39.587-46.168h-64.201c-6.881 0-13.184 1.801-18.682 4.928v127.465c0 27.821 22.377 50.589 50.197 50.8.195.001.39.002.586.002 41.434 0 75.024-33.589 75.024-75.024v-23.685z" fill="#fab9af"/></g></g><path d="m492.451 260.964v44.593c5.6 0 10.589-2.617 13.81-6.694 1.076-6.201 2.319-14.887 3.067-25.284-2.146-7.291-8.89-12.615-16.877-12.615z" fill="#f9968c"/><g><g><path d="m492.451 290.786v-15.049c3.278 0 5.936 2.658 5.936 5.936v3.176c.001 3.279-2.657 5.937-5.936 5.937z" fill="#f5817a"/></g></g><g><g><path d="m324.071 287.967c0 9.715 7.875 17.59 17.59 17.59v-44.593c-9.715 0-17.59 7.875-17.59 17.59z" fill="#f9968c"/></g></g><g><g><path d="m335.882 284.807c0 3.192 2.588 5.779 5.779 5.779v-14.651c-3.192 0-5.779 2.588-5.779 5.779z" fill="#f5817a"/></g></g><g><g><path d="m385.012 287.568v5.29c0 3.451 2.798 6.249 6.249 6.249s6.249-2.798 6.249-6.249v-5.29z" fill="#f9968c"/></g></g><g><g><path d="m435.926 287.568v5.29c0 3.451 2.798 6.249 6.249 6.249s6.249-2.798 6.249-6.249v-5.29z" fill="#f9968c"/></g></g><g><path d="m421.494 390.517c-31.542-9.16-54.598-38.268-54.598-72.765.187-4.263 0-45.57 0-61.261 0-24.116 18.754-45.83 42.87-45.83l55.292 2.164c-4.794-1.862-10.02-2.892-15.529-2.892h-64.201c-24.116 0-42.013 17.897-42.013 42.013l-1.653 39.971v22.943c-.001 43.303 36.281 77.964 79.832 75.657z" fill="#f9968c"/></g><g><g><path d="m391.261 294.102c-3.451 0-6.249-2.798-6.249-6.249v-8.038l2.303-3.488-2.303-3.488v-2.076c0-3.451 2.798-6.249 6.249-6.249s6.249 2.798 6.249 6.249v17.09c0 3.451-2.798 6.249-6.249 6.249z" fill="#373c41"/></g></g><g><g><path d="m442.174 294.102c-3.451 0-6.249-2.798-6.249-6.249v-8.038l2.303-3.488-2.303-3.488v-2.076c0-3.451 2.798-6.249 6.249-6.249s6.249 2.798 6.249 6.249v17.09c0 3.451-2.798 6.249-6.249 6.249z" fill="#373c41"/></g></g><g><g><g><path d="m399.493 261.391h-18.223c-3.451 0-6.249-2.798-6.249-6.249 0-3.451 2.798-6.249 6.249-6.249h18.223c3.451 0 6.249 2.798 6.249 6.249 0 3.451-2.798 6.249-6.249 6.249z" fill="#ffc344"/></g></g></g><g><g><g><path d="m451.565 261.391h-18.223c-3.451 0-6.249-2.798-6.249-6.249 0-3.451 2.798-6.249 6.249-6.249h18.223c3.451 0 6.249 2.798 6.249 6.249-.001 3.451-2.798 6.249-6.249 6.249z" fill="#ffc344"/></g></g></g><g><g><path d="m407.303 302.972c-1.553 6.203 1.27 12.96 6.668 14.996 1.086.41 2.248.632 3.456.632s2.37-.222 3.456-.632c5.399-2.037 8.222-8.793 6.668-14.996l-5.15-20.564c-1.296-5.177-8.654-5.177-9.95 0z" fill="#f9968c"/></g></g><g fill="#fff"><path d="m387.316 282.119c-1.272 0-2.303-1.031-2.303-2.303v-6.976c0-1.272 1.031-2.303 2.303-2.303 1.272 0 2.303 1.031 2.303 2.303v6.976c0 1.272-1.031 2.303-2.303 2.303z"/><path d="m438.229 282.119c-1.272 0-2.303-1.031-2.303-2.303v-6.976c0-1.272 1.031-2.303 2.303-2.303 1.272 0 2.303 1.031 2.303 2.303v6.976c.001 1.272-1.031 2.303-2.303 2.303z"/></g></g><g><g><path d="m492.453 198.496v54.352.002 37.92c-5.55 0-10.049-4.499-10.049-10.049v-44.372c0-9.801-5.515-18.834-14.329-23.121-.216-.105-.432-.208-.647-.308v-2.093z" fill="#ffc344"/></g><g><path d="m341.662 221.116v31.731.002 37.92c5.55 0 10.049-4.499 10.049-10.049v-44.372c0-.059 0-.118.001-.176.048-7.126 4.88-13.086 11.396-15.056z" fill="#ffc344"/></g><path d="m376.475 167.425h-11.7c-12.765 0-23.114 10.348-23.114 23.114v62.308c19.227 0 34.813-15.586 34.813-34.813v-50.609z" fill="#ffc344"/><path d="m456.138 232.631h-82.832v-62.097c0-12.056 9.774-21.83 21.83-21.83h114.864v30.065c0 29.748-24.115 53.862-53.862 53.862z" fill="#fedf30"/></g></g><path d="m435.668 338.574c-10.074 10.074-26.407 10.074-36.481 0" fill="none" stroke="#f9968c" stroke-miterlimit="10" stroke-width="10.143"/><g fill="#f9968c"><circle cx="372.776" cy="307.727" r="5.797"/><circle cx="391.381" cy="318.214" r="4.69"/><circle cx="377.556" cy="327.153" r="4.25"/><circle cx="464.322" cy="307.727" r="5.797"/><circle cx="445.717" cy="318.214" r="4.69"/><circle cx="459.542" cy="327.153" r="4.25"/></g></g></svg>