<svg height="512" viewBox="0 0 64 64" width="512" xmlns="http://www.w3.org/2000/svg"><g id="man-working-laptop-work_at_home" data-name="man-working-laptop-work at home"><path d="m22 13h20a0 0 0 0 1 0 0v10a10 10 0 0 1 -10 10 10 10 0 0 1 -10-10v-10a0 0 0 0 1 0 0z" fill="#f5e0cd"/><path d="m11 37h2a0 0 0 0 1 0 0v17a0 0 0 0 1 0 0h-6a0 0 0 0 1 0 0v-13a4 4 0 0 1 4-4z" fill="#2488ff"/><circle cx="11" cy="54" fill="#f5e0cd" r="6"/><path d="m51 37h6a0 0 0 0 1 0 0v17a0 0 0 0 1 0 0h-2a4 4 0 0 1 -4-4v-13a0 0 0 0 1 0 0z" fill="#2488ff" transform="matrix(-1 0 0 -1 108 91)"/><circle cx="53" cy="54" fill="#f5e0cd" r="6"/><path d="m3 57h58v4h-58z" fill="#b39a7c"/><path d="m55 54v1a2.006 2.006 0 0 1 -2 2h-42a2.006 2.006 0 0 1 -2-2v-1a1 1 0 0 1 1-1h44a1 1 0 0 1 1 1z" fill="#d8d7da"/><path d="m22 16v6h-2a2.006 2.006 0 0 1 -2-2v-2a2.006 2.006 0 0 1 2-2z" fill="#f0d0b4"/><path d="m46 18v2a2.006 2.006 0 0 1 -2 2h-2v-6h2a2.006 2.006 0 0 1 2 2z" fill="#f0d0b4"/><path d="m53 33v20h-42v-20a2.006 2.006 0 0 1 2-2h38a2.006 2.006 0 0 1 2 2z" fill="#9bfbff"/><path d="m42 13h-25a9.986 9.986 0 0 1 16.06-7.94 7.3 7.3 0 0 1 .94-.06 8 8 0 0 1 8 8z" fill="#806749"/><circle cx="32" cy="42" fill="#ffda44" r="3"/><path d="m28 23a1 1 0 0 0 1-1v-2a1 1 0 0 0 -2 0v2a1 1 0 0 0 1 1z" fill="#2d2d30"/><path d="m36 19a1 1 0 0 0 -1 1v2a1 1 0 0 0 2 0v-2a1 1 0 0 0 -1-1z" fill="#2d2d30"/><path d="m32 27c-1.936 0-3-.751-3-1h-2c0 1.71 2.149 3 5 3s5-1.29 5-3h-2c0 .249-1.064 1-3 1z" fill="#3e3d42"/></g></svg>