<svg height="512" viewBox="0 0 512 512" width="512" xmlns="http://www.w3.org/2000/svg"><g id="flat"><path d="m200 288h32v96h-24z" fill="#f6bb92"/><path d="m232 224h128v168h-128z" fill="#0296e5"/><path d="m360 288v56h-125a27 27 0 0 0 -27 27v21h170a30 30 0 0 0 30-30v-74z" fill="#fdc9a6"/><path d="m472 376h-16a8 8 0 0 1 0-16h16a8 8 0 0 0 0-16h-16a8 8 0 0 1 0-16h16a24 24 0 0 1 0 48z" fill="#e82f3e"/><path d="m272 184h48v40a33.941 33.941 0 0 1 -48 0z" fill="#fdc9a6"/><path d="m320 184v25.58a48.07 48.07 0 0 1 -48 0v-25.58z" fill="#fdc9a6"/><path d="m320 184v25.58a48.07 48.07 0 0 1 -48 0v-25.58z" fill="#f6bb92"/><path d="m184 224h48a0 0 0 0 1 0 0v34a30 30 0 0 1 -30 30h-18a0 0 0 0 1 0 0v-64a0 0 0 0 1 0 0z" fill="#0296e5" transform="matrix(-1 0 0 -1 416 512)"/><path d="m360 104h-16l-24-16h-72a35.1 35.1 0 0 1 -24-33.3v-14.7h88a48 48 0 0 1 48 48z" fill="#683b0d"/><path d="m24 392h464v32h-464z" fill="#fbb540"/><path d="m40 424h32v64h-32z" fill="#c38325"/><path d="m440 424h32v64h-32z" fill="#c38325"/><path d="m72 424h368v64h-368z" fill="#ea9d2d"/><path d="m424 392h64v32h-64z" fill="#c38325"/><path d="m296 200a48 48 0 0 1 -48-48v-64h72l24 16v48a48 48 0 0 1 -48 48z" fill="#fdc9a6"/><g fill="#683b0d"><circle cx="272" cy="128" r="10"/><circle cx="320" cy="128" r="10"/><path d="m296 160a7.976 7.976 0 0 1 -5.657-2.343l-8-8a8 8 0 0 1 -1.5-9.235l8-16a8 8 0 1 1 14.31 7.156l-5.421 10.842 3.923 3.923a8 8 0 0 1 -5.655 13.657z"/><path d="m296 179.752a43.8 43.8 0 0 1 -19.578-4.6 8 8 0 0 1 7.156-14.31 27.917 27.917 0 0 0 24.844 0 8 8 0 1 1 7.156 14.31 43.8 43.8 0 0 1 -19.578 4.6z"/></g><path d="m236 104h12a0 0 0 0 1 0 0v40a0 0 0 0 1 0 0h-12a20 20 0 0 1 -20-20 20 20 0 0 1 20-20z" fill="#fdc9a6"/><path d="m364 104h12a0 0 0 0 1 0 0v40a0 0 0 0 1 0 0h-12a20 20 0 0 1 -20-20 20 20 0 0 1 20-20z" fill="#fdc9a6" transform="matrix(-1 0 0 -1 720 248)"/><path d="m360 224h18a30 30 0 0 1 30 30v34a0 0 0 0 1 0 0h-48a0 0 0 0 1 0 0v-64a0 0 0 0 1 0 0z" fill="#0296e5"/><path d="m224 392h-176l-24-128h176z" fill="#cbcbcb"/><circle cx="120" cy="328" fill="#c4f8ff" r="16"/><path d="m400 328h56v64h-56z" fill="#e82f3e"/><path d="m72 424h368v16h-368z" fill="#d18d28"/><path d="m440 424h32v16h-32z" fill="#97661d"/><path d="m40 424h32v16h-32z" fill="#97661d"/></g></svg>