<svg height="512pt" viewBox="0 0 512 512" width="512pt" xmlns="http://www.w3.org/2000/svg"><path d="m256 512c-68.378906 0-132.667969-26.628906-181.019531-74.980469-48.351563-48.351562-74.980469-112.640625-74.980469-181.019531s26.628906-132.667969 74.980469-181.019531c48.351562-48.351563 112.640625-74.980469 181.019531-74.980469s132.667969 26.628906 181.019531 74.980469c48.351563 48.351562 74.980469 112.640625 74.980469 181.019531s-26.628906 132.667969-74.980469 181.019531c-48.351562 48.351563-112.640625 74.980469-181.019531 74.980469zm0 0" fill="#005fdf"/><path d="m437.019531 74.980469c-48.351562-48.351563-112.640625-74.980469-181.019531-74.980469v512c68.378906 0 132.667969-26.628906 181.019531-74.980469 48.351563-48.351562 74.980469-112.640625 74.980469-181.019531s-26.628906-132.667969-74.980469-181.019531zm0 0" fill="#00429b"/><path d="m256 256v256c68.378906 0 132.667969-26.628906 181.019531-74.980469 48.351563-48.351562 74.980469-112.640625 74.980469-181.019531zm0 0" fill="#005fdf"/><path d="m0 256c0 68.378906 26.628906 132.667969 74.980469 181.019531 48.351562 48.351563 112.640625 74.980469 181.019531 74.980469v-256zm0 0" fill="#00429b"/><path d="m71 256c0 67.441406 18.65625 131.03125 52.535156 179.058594 35 49.617187 82.042969 76.941406 132.464844 76.941406v-256zm0 0" fill="#005fdf"/><path d="m256 256v256c50.421875 0 97.46875-27.324219 132.464844-76.941406 33.878906-48.027344 52.535156-111.617188 52.535156-179.058594zm0 0" fill="#00429b"/><path d="m441 256c0-67.441406-18.65625-131.03125-52.535156-179.058594-35-49.617187-82.042969-76.941406-132.464844-76.941406v256zm0 0" fill="#005fdf"/><path d="m256 256v-256c-50.421875 0-97.46875 27.324219-132.464844 76.941406-33.878906 48.027344-52.535156 111.617188-52.535156 179.058594zm0 0" fill="#00429b"/><path d="m303.914062 512h-95.828124l-24.511719-163h144.851562zm0 0" fill="#00eccf"/><path d="m256 512h47.914062l24.511719-163h-72.425781zm0 0" fill="#00cab1"/><path d="m351 379h-190v-124c0-30.328125 24.671875-55 55-55h80c30.328125 0 55 24.671875 55 55zm0 0" fill="#fedc35"/><path d="m256 379h95v-124c0-30.328125-24.671875-55-55-55h-40zm0 0" fill="#fdc500"/><path d="m256 230c-41.355469 0-75-33.644531-75-75s33.644531-75 75-75 75 33.644531 75 75-33.644531 75-75 75zm0 0" fill="#ffdfcf"/><path d="m331 155c0-41.355469-33.644531-75-75-75v150c41.355469 0 75-33.644531 75-75zm0 0" fill="#ffcebf"/></svg>